<?xml version="1.0" encoding="utf-8"?>
<svg version="1.1" xmlns="http://www.w3.org/2000/svg" xmlns:xlink="http://www.w3.org/1999/xlink" height="340.8059042253524" width="340.80590422535147">
  <defs>
    <path id="path-0" opacity="1" d="M170.40295211267537,26.940729890453895 C249.58190800441648,26.940729890453895 313.865174334897,91.22399622093462 313.865174334897,170.40295211267602 C313.865174334897,249.58190800441736 249.58190800441648,313.8651743348981 170.40295211267537,313.8651743348981 C91.22399622093425,313.8651743348981 26.940729890453753,249.58190800441736 26.940729890453753,170.40295211267602 C26.940729890453753,91.22399622093462 91.22399622093425,26.940729890453895 170.40295211267537,26.940729890453895 L170.40295211267537,26.940729890453895ZM170.4029521126757,1.4029521126760756 C77.12931297318988,1.4029521126760756 1.4029521126760471,77.12931297319017 1.4029521126760471,170.40295211267625 C1.4029521126760471,263.6765912521624 77.12931297318988,339.40295211267636 170.4029521126757,339.40295211267636 C263.67659125216153,339.40295211267636 339.4029521126753,263.6765912521624 339.4029521126753,170.40295211267625 C339.4029521126753,77.12931297319017 263.67659125216153,1.4029521126760756 170.4029521126757,1.4029521126760756 L170.4029521126757,1.4029521126760756Z"/>
    <linearGradient id="linearGradient-1" x1="0.21670496323529412" y1="0.11688878676470588" x2="0.8312729779411765" y2="0.84140625">
      <stop offset="1" stop-color="rgb(255,255,255)" stop-opacity="1"/>
      <stop offset="0" stop-color="rgb(239,239,239)" stop-opacity="1"/>
    </linearGradient>
    <path id="path-2" opacity="1" d="M228.53204686434808,212.40591090098133 C237.4323035895636,212.40591090098133 244.6581828277153,219.63179013913316 244.6581828277153,228.53204686434867 C244.6581828277153,237.43230358956419 237.4323035895636,244.65818282771602 228.53204686434808,244.65818282771602 C219.6317901391328,244.65818282771602 212.40591090098084,237.43230358956419 212.40591090098084,228.53204686434867 C212.40591090098084,219.63179013913316 219.6317901391328,212.40591090098133 228.53204686434808,212.40591090098133 L228.53204686434808,212.40591090098133ZM170.40295211267514,45.14412858326443 C101.2707254563505,45.14412858326443 45.144128583263836,101.27072545635133 45.144128583263836,170.4029521126763 C45.144128583263836,239.53517876900116 101.2707254563505,295.66177564208806 170.40295211267514,295.66177564208806 C239.53517876899988,295.66177564208806 295.66177564208647,239.53517876900116 295.66177564208647,170.4029521126763 C295.66177564208647,101.27072545635133 239.53517876899988,45.14412858326443 170.40295211267514,45.14412858326443 L170.40295211267514,45.14412858326443Z"/>
    <radialGradient id="radialGradient-3" cx="0.7244023950270522" cy="0.7159709071515568" r="0.8363142753444757">
      <stop offset="1" stop-color="rgb(247,247,247)" stop-opacity="1"/>
      <stop offset="0" stop-color="rgb(220,220,220)" stop-opacity="1"/>
    </radialGradient>
  </defs>
  <g opacity="1">
    <g opacity="1">
      <use xlink:href="#path-0" fill="url(#linearGradient-1)" fill-opacity="1"/>
    </g>
    <g opacity="1">
      <use xlink:href="#path-2" fill="url(#radialGradient-3)" fill-opacity="1"/>
    </g>
  </g>
</svg>