<?xml version="1.0" encoding="UTF-8"?>
<svg width="170px" height="170px" viewBox="0 0 170 170" version="1.1" xmlns="http://www.w3.org/2000/svg" xmlns:xlink="http://www.w3.org/1999/xlink">
    <!-- Generator: Sketch 52.2 (67145) - http://www.bohemiancoding.com/sketch -->
    <title>Artboard</title>
    <desc>Created with Sketch.</desc>
    <defs>
        <linearGradient x1="21.6704963%" y1="11.6888787%" x2="83.1272978%" y2="84.140625%" id="linearGradient-1">
            <stop stop-color="#EFEFEF" offset="0%"></stop>
            <stop stop-color="#FFFFFF" offset="100%"></stop>
        </linearGradient>
    </defs>
    <g id="Artboard" stroke="none" stroke-width="1" fill="none" fill-rule="evenodd">
        <path d="M85,170 C38.0557963,170 1.42108547e-14,131.944204 1.42108547e-14,85 C1.42108547e-14,38.0557963 38.0557963,1.42108547e-14 85,1.42108547e-14 C131.944204,1.42108547e-14 170,38.0557963 170,85 C170,131.944204 131.944204,170 85,170 Z M85,157.155556 C124.850413,157.155556 157.155556,124.850413 157.155556,85 C157.155556,45.1495871 124.850413,12.8444444 85,12.8444444 C45.1495871,12.8444444 12.8444444,45.1495871 12.8444444,85 C12.8444444,124.850413 45.1495871,157.155556 85,157.155556 Z M85,148 C50.2060608,148 22,119.793939 22,85 C22,50.2060608 50.2060608,22 85,22 C119.793939,22 148,50.2060608 148,85 C148,119.793939 119.793939,148 85,148 Z M114.236527,122.347305 C118.715986,122.347305 122.347305,118.715986 122.347305,114.236527 C122.347305,109.757068 118.715986,106.125749 114.236527,106.125749 C109.757068,106.125749 106.125749,109.757068 106.125749,114.236527 C106.125749,118.715986 109.757068,122.347305 114.236527,122.347305 Z" id="Shape" fill="url(#linearGradient-1)"></path>
    </g>
</svg>