<?xml version="1.0" standalone="no"?>
<!DOCTYPE svg PUBLIC "-//W3C//DTD SVG 20010904//EN"
 "http://www.w3.org/TR/2001/REC-SVG-20010904/DTD/svg10.dtd">
<svg version="1.0" xmlns="http://www.w3.org/2000/svg"
 width="700.000000pt" height="700.000000pt" viewBox="0 0 700.000000 700.000000"
 preserveAspectRatio="xMidYMid meet">
<g transform="translate(0.000000,700.000000) scale(0.100000,-0.100000)"
fill="#000000" stroke="none">
<path d="M3298 6995 c-2 -1 -41 -5 -88 -9 -100 -7 -225 -22 -295 -36 -27 -5
-61 -12 -75 -14 -431 -79 -908 -273 -1275 -519 -69 -46 -297 -217 -305 -228
-3 -3 -25 -23 -50 -44 -85 -70 -216 -201 -361 -361 -107 -118 -286 -370 -386
-544 -158 -276 -309 -656 -369 -933 -20 -90 -53 -272 -59 -322 -4 -33 -9 -69
-11 -80 -18 -95 -25 -522 -12 -690 8 -104 25 -233 42 -320 2 -11 6 -36 10 -55
10 -58 13 -72 35 -165 22 -90 84 -302 101 -340 4 -11 25 -65 46 -120 20 -55
64 -156 97 -225 452 -934 1280 -1618 2274 -1875 72 -19 142 -36 155 -39 13 -2
60 -11 106 -20 46 -9 111 -19 145 -22 34 -3 65 -8 68 -9 15 -10 227 -20 409
-20 188 0 341 8 430 21 144 21 295 48 345 61 33 8 67 16 75 18 109 22 388 117
549 187 121 53 308 148 353 179 14 11 29 19 33 19 24 0 383 257 495 355 119
104 294 279 365 365 21 25 41 47 44 50 4 3 45 55 91 115 332 436 547 915 654
1456 14 70 28 155 32 190 3 35 8 67 10 70 9 17 19 214 18 399 0 188 -6 331
-19 420 -3 19 -7 56 -10 81 -3 25 -7 54 -9 65 -2 10 -11 60 -21 109 -98 525
-337 1052 -670 1480 -43 55 -81 102 -84 105 -4 3 -31 34 -61 69 -111 129 -291
299 -450 426 -413 329 -930 572 -1447 680 -100 20 -248 43 -393 60 -56 7 -526
16 -532 10z m502 -539 c14 -2 50 -8 80 -11 87 -10 88 -10 220 -35 246 -47 565
-163 814 -298 110 -60 325 -198 396 -256 25 -20 50 -39 55 -44 6 -4 44 -36 85
-72 505 -440 844 -1032 969 -1691 11 -57 23 -131 26 -164 4 -33 9 -71 12 -85
9 -45 12 -483 3 -560 -4 -41 -11 -102 -15 -135 -19 -163 -98 -479 -161 -645
-218 -564 -588 -1045 -1064 -1381 -118 -82 -114 -80 -225 -145 -180 -106 -495
-245 -635 -279 -8 -2 -67 -17 -130 -34 -63 -17 -137 -33 -165 -37 -27 -3 -53
-8 -56 -10 -4 -2 -28 -6 -55 -9 -27 -3 -56 -8 -64 -10 -70 -19 -522 -28 -665
-13 -577 61 -1069 252 -1520 591 -44 33 -82 63 -85 66 -3 4 -34 31 -70 61 -82
69 -218 206 -290 290 -30 36 -57 67 -60 70 -4 3 -19 23 -35 45 -17 22 -33 42
-36 45 -13 10 -189 274 -189 283 0 5 -8 21 -18 35 -63 91 -187 368 -245 547
-67 207 -115 439 -134 640 -10 103 -10 468 0 565 40 395 155 782 327 1100 28
50 50 94 50 97 0 9 185 284 226 337 393 497 897 846 1480 1024 129 40 320 84
419 98 28 3 59 8 69 10 11 2 56 6 100 10 45 3 83 8 85 10 7 6 471 -3 501 -10z"/>
<path d="M3478 6095 c-2 -1 -61 -5 -133 -8 -110 -5 -230 -19 -348 -41 -14 -2
-79 -18 -144 -35 -843 -216 -1530 -854 -1808 -1676 -161 -474 -181 -978 -60
-1466 234 -942 988 -1679 1940 -1898 106 -24 137 -30 190 -36 22 -3 56 -7 76
-10 100 -15 408 -21 519 -11 62 6 161 17 185 22 20 4 59 11 105 18 14 2 79 18
145 35 730 185 1349 689 1680 1366 98 202 184 444 210 595 3 19 10 53 15 75 8
38 11 57 25 171 13 105 15 143 15 299 1 196 -12 339 -41 490 -6 28 -13 61 -15
75 -12 59 -38 153 -74 260 -243 726 -801 1315 -1510 1592 -127 50 -285 100
-350 112 -14 2 -43 8 -65 14 -35 9 -85 18 -215 37 -19 2 -82 7 -140 11 -58 3
-126 7 -152 8 -26 2 -49 2 -50 1z m1324 -3482 c81 -28 125 -61 176 -131 112
-157 52 -393 -122 -480 -142 -71 -308 -37 -410 85 -91 109 -96 280 -12 402 78
113 242 168 368 124z"/>
</g>
</svg>
